<svg width="2153" height="1866" viewBox="0 0 2153 1866" fill="none" xmlns="http://www.w3.org/2000/svg">
<g clip-path="url(#clip0_2708_5)">
<path d="M804.458 835.937C805.363 835.441 806.25 834.927 807.12 834.397C809.35 823.72 811.579 813.043 813.809 802.365C826.931 815.996 852.736 813.424 862.909 797.47C827.436 721.798 780.789 651.889 724.532 590.086C712.269 576.547 705.388 558.986 705.19 540.72C704.993 522.454 711.491 504.747 723.458 490.946C723.673 490.696 723.886 490.443 724.097 490.189C755.865 479.459 785.946 464.268 813.438 445.072C719.157 293.585 539.376 173.239 496.644 0C368.087 138.063 353.656 186.687 225.098 324.75C225.098 324.75 103.37 434.598 77.0954 493.633C83.5512 500.415 141.348 516.689 143.57 530.022C187.648 533.556 264.01 485.241 264.01 485.241C264.01 485.241 97.3367 662.943 46.7329 772.398C42.176 782.255 37.848 793.51 41.6655 803.676C44.7134 811.792 55.647 816.472 62.689 813.247C54.2769 821.361 47.5227 831.033 42.8023 841.725C71.5781 861.175 114.015 856.901 138.334 832.103C131.286 845.272 124.238 858.441 117.189 871.61L117.202 871.641C126.724 874.752 135.269 880.295 141.994 887.721C148.719 895.146 153.39 904.198 155.545 913.982C157.701 923.765 157.267 933.942 154.286 943.506C151.305 953.071 145.88 961.692 138.548 968.518C94.809 1009.2 54.8433 1051.96 40.1989 1080.12C26.4223 1106.61 167.877 1138.55 199.694 1137.24C231.511 1135.93 261.25 1121.95 289.987 1108.22C288.586 1121.33 291.093 1134.55 297.19 1146.24C312.927 1150.05 329.269 1150.69 345.256 1148.11C361.242 1145.52 376.551 1139.77 390.283 1131.18C388.569 1166.62 449.645 1180.65 463.562 1148.01C458.341 1167.2 483.728 1179.08 503.305 1182.55C559.163 1192.47 626.571 1198.5 662.918 1154.94C704.753 1197.12 781.415 1196.32 823.008 1154.28C818.915 1161.54 825.18 1173.74 834.448 1175.66C845.37 1177.93 855.996 1171.44 865.269 1165.24C907.249 1137.17 949.228 1109.11 991.208 1081.04L797.923 950.733C755.859 922.375 759.974 860.325 804.458 835.937Z" fill="#81B29A"/>
<path d="M480.245 1864.28H452.943C440.012 1553.86 430.699 1256.81 452.943 1076.31H480.245L480.245 1864.28Z" fill="#81B29A"/>
<path d="M1885.59 1799.63C1887.39 1799.72 1889.18 1799.24 1890.71 1798.28C1892.24 1797.31 1893.43 1795.89 1894.13 1794.23C1894.82 1792.56 1894.99 1790.72 1894.61 1788.95C1894.22 1787.18 1893.31 1785.58 1891.98 1784.35C1891.75 1783.46 1891.6 1782.83 1891.37 1781.95C1891.45 1781.75 1891.53 1781.56 1891.61 1781.37C1893.43 1777.07 1896.48 1773.41 1900.38 1770.83C1904.27 1768.26 1908.84 1766.9 1913.51 1766.92C1918.18 1766.94 1922.74 1768.33 1926.61 1770.93C1930.49 1773.53 1933.51 1777.22 1935.3 1781.53C1942.44 1798.74 1951.54 1815.98 1953.78 1834.17C1954.77 1842.22 1954.35 1850.37 1952.55 1858.27C1969.33 1821.66 1978.04 1781.87 1978.1 1741.6C1978.1 1731.5 1977.54 1721.4 1976.42 1711.36C1975.49 1703.12 1974.2 1694.95 1972.55 1686.83C1963.56 1642.8 1944.25 1601.52 1916.21 1566.4C1902.63 1558.99 1891.66 1547.6 1884.76 1533.77C1882.26 1528.79 1880.49 1523.48 1879.51 1518C1881.04 1518.21 1882.6 1518.33 1884.13 1518.43C1884.6 1518.46 1885.11 1518.48 1885.58 1518.51L1885.76 1518.52C1887.45 1518.59 1889.11 1518.18 1890.57 1517.33C1892.02 1516.48 1893.2 1515.22 1893.96 1513.72C1894.72 1512.22 1895.02 1510.52 1894.84 1508.85C1894.66 1507.17 1894 1505.59 1892.94 1504.28C1892.28 1503.47 1891.62 1502.65 1890.96 1501.84C1889.95 1500.58 1888.92 1499.35 1887.92 1498.1C1887.8 1497.98 1887.69 1497.85 1887.59 1497.72C1886.44 1496.29 1885.28 1494.89 1884.13 1493.46C1886.24 1490.18 1889.07 1487.44 1892.41 1485.45C1903.98 1478.67 1919.94 1483.37 1928.3 1493.83C1936.69 1504.3 1938.27 1518.98 1935.36 1532.06C1932.49 1543.19 1927.76 1553.75 1921.35 1563.29C1921.98 1564.09 1922.63 1564.87 1923.26 1565.67C1934.73 1580.42 1944.73 1596.26 1953.11 1612.96C1951.07 1594.25 1953.5 1575.33 1960.2 1557.74C1967 1541.35 1979.73 1527.55 1990.94 1513.38C2004.41 1496.36 2032.03 1503.79 2034.41 1525.36C2034.43 1525.57 2034.45 1525.78 2034.47 1525.99C2032.81 1526.93 2031.18 1527.92 2029.58 1528.98C2027.58 1530.32 2026.03 1532.23 2025.13 1534.47C2024.23 1536.7 2024.03 1539.16 2024.55 1541.51C2025.07 1543.87 2026.29 1546.01 2028.05 1547.66C2029.81 1549.3 2032.02 1550.38 2034.41 1550.75L2034.65 1550.79C2034.06 1556.79 2033.01 1562.74 2031.51 1568.58C2027.18 1584.9 2019.52 1600.14 2009.02 1613.36C1998.52 1626.58 1985.41 1637.48 1970.5 1645.39C1969.52 1645.89 1968.56 1646.4 1967.58 1646.87C1976 1670.74 1981.29 1695.59 1983.3 1720.82C1984.43 1735.7 1984.37 1750.65 1983.09 1765.52L1983.17 1765C1986.38 1748.46 1995.2 1733.54 2008.14 1722.75C2027.36 1706.96 2054.52 1701.15 2075.25 1688.46C2077.45 1687.04 2080.01 1686.29 2082.63 1686.28C2085.25 1686.28 2087.82 1687.02 2090.03 1688.42C2092.24 1689.83 2094 1691.83 2095.11 1694.21C2096.22 1696.58 2096.62 1699.22 2096.28 1701.82C2096.25 1702 2096.22 1702.19 2096.19 1702.37C2093.1 1703.63 2090.09 1705.08 2087.18 1706.71C2085.52 1707.65 2083.89 1708.65 2082.29 1709.7C2080.29 1711.04 2078.73 1712.96 2077.84 1715.19C2076.94 1717.43 2076.74 1719.89 2077.26 1722.24C2077.78 1724.59 2079 1726.73 2080.76 1728.38C2082.52 1730.03 2084.73 1731.11 2087.11 1731.47L2087.36 1731.51C2087.53 1731.54 2087.68 1731.56 2087.86 1731.59C2082.58 1744.2 2075.17 1755.8 2065.95 1765.9C2054.56 1778.12 2040.8 1787.89 2025.5 1794.6C2010.2 1801.31 1993.7 1804.83 1977 1804.93H1976.97C1972.44 1824.64 1965.87 1843.82 1957.37 1862.16H1887.34C1887.09 1861.38 1886.86 1860.58 1886.64 1859.8C1893.12 1860.21 1899.63 1859.82 1906.01 1858.65C1900.82 1852.27 1895.62 1845.85 1890.43 1839.47C1890.31 1839.35 1890.2 1839.23 1890.1 1839.09C1887.47 1835.83 1884.81 1832.59 1882.17 1829.33L1882.17 1829.33C1882.03 1819.32 1883.18 1809.34 1885.58 1799.64L1885.59 1799.63Z" fill="#81B29A"/>
<path d="M294.335 1799.63C292.528 1799.72 290.74 1799.24 289.212 1798.28C287.685 1797.31 286.491 1795.89 285.794 1794.23C285.096 1792.56 284.928 1790.72 285.313 1788.95C285.697 1787.18 286.615 1785.58 287.943 1784.35C288.166 1783.46 288.325 1782.83 288.547 1781.95C288.468 1781.75 288.388 1781.56 288.307 1781.37C286.488 1777.07 283.438 1773.41 279.543 1770.83C275.647 1768.26 271.079 1766.9 266.411 1766.92C261.744 1766.94 257.185 1768.33 253.309 1770.93C249.432 1773.53 246.411 1777.22 244.623 1781.53C237.478 1798.74 228.382 1815.98 226.142 1834.17C225.155 1842.22 225.571 1850.37 227.372 1858.27C210.59 1821.66 201.876 1781.87 201.82 1741.6C201.817 1731.5 202.378 1721.4 203.502 1711.36C204.431 1703.12 205.719 1694.95 207.367 1686.83C216.362 1642.8 235.673 1601.52 263.715 1566.4C277.288 1558.99 288.264 1547.6 295.165 1533.77C297.665 1528.79 299.432 1523.48 300.411 1518C298.88 1518.21 297.324 1518.33 295.792 1518.43C295.316 1518.46 294.814 1518.48 294.337 1518.51L294.157 1518.51C292.474 1518.59 290.805 1518.18 289.352 1517.33C287.898 1516.48 286.721 1515.22 285.963 1513.72C285.205 1512.21 284.897 1510.52 285.078 1508.85C285.259 1507.17 285.919 1505.59 286.981 1504.28C287.642 1503.47 288.303 1502.65 288.965 1501.84C289.969 1500.58 290.998 1499.35 292.002 1498.1C292.118 1497.98 292.227 1497.85 292.329 1497.72C293.483 1496.29 294.638 1494.89 295.792 1493.46C293.685 1490.18 290.85 1487.44 287.51 1485.45C275.939 1478.67 259.975 1483.37 251.617 1493.83C243.234 1504.3 241.653 1518.98 244.564 1532.06C247.427 1543.19 252.164 1553.75 258.57 1563.29C257.942 1564.09 257.29 1564.87 256.662 1565.67C245.192 1580.42 235.194 1596.26 226.813 1612.96C228.852 1594.25 226.419 1575.33 219.716 1557.74C212.922 1541.35 200.189 1527.55 188.976 1513.38C175.506 1496.36 147.887 1503.79 145.514 1525.36C145.491 1525.57 145.469 1525.78 145.447 1525.99C147.112 1526.93 148.743 1527.92 150.338 1528.98C152.342 1530.32 153.895 1532.23 154.793 1534.47C155.691 1536.7 155.893 1539.16 155.371 1541.51C154.85 1543.87 153.63 1546.01 151.871 1547.66C150.113 1549.3 147.897 1550.38 145.515 1550.75L145.271 1550.79C145.865 1556.79 146.913 1562.74 148.409 1568.58C152.741 1584.9 160.397 1600.14 170.897 1613.36C181.397 1626.58 194.513 1637.48 209.425 1645.39C210.404 1645.89 211.358 1646.4 212.337 1646.87C203.917 1670.74 198.635 1695.59 196.625 1720.82C195.486 1735.7 195.554 1750.65 196.825 1765.52L196.75 1765C193.537 1748.46 184.716 1733.54 171.776 1722.75C152.557 1706.96 125.405 1701.15 104.671 1688.46C102.467 1687.04 99.9052 1686.29 97.2866 1686.28C94.6681 1686.28 92.1023 1687.02 89.8919 1688.42C87.6816 1689.83 85.9188 1691.83 84.8115 1694.21C83.7043 1696.58 83.2987 1699.22 83.6426 1701.82C83.6704 1702 83.6987 1702.19 83.7274 1702.37C86.8182 1703.63 89.8276 1705.08 92.738 1706.71C94.4036 1707.65 96.0339 1708.65 97.6291 1709.7C99.6331 1711.04 101.186 1712.96 102.084 1715.19C102.982 1717.43 103.184 1719.89 102.663 1722.24C102.141 1724.59 100.921 1726.73 99.1626 1728.38C97.4039 1730.03 95.1883 1731.11 92.8064 1731.47L92.5623 1731.51C92.3866 1731.54 92.236 1731.56 92.0606 1731.59C97.3416 1744.2 104.754 1755.8 113.972 1765.9C125.36 1778.12 139.124 1787.89 154.42 1794.6C169.716 1801.31 186.221 1804.83 202.925 1804.93H202.95C207.484 1824.64 214.053 1843.82 222.552 1862.16H292.58C292.831 1861.38 293.057 1860.58 293.283 1859.8C286.801 1860.21 280.293 1859.82 273.906 1858.65C279.101 1852.27 284.297 1845.85 289.492 1839.47C289.608 1839.35 289.717 1839.22 289.819 1839.09C292.454 1835.83 295.115 1832.59 297.75 1829.33L297.751 1829.33C297.892 1819.32 296.744 1809.34 294.337 1799.64L294.335 1799.63Z" fill="#81B29A"/>
<path d="M1328.32 1478.36L1310.14 1485.53L1458.21 1861.27L1476.39 1854.1L1328.32 1478.36Z" fill="#E6E6E6"/>
<path d="M1208.09 1854.1L1226.27 1861.27L1374.34 1485.53L1356.16 1478.36L1208.09 1854.1Z" fill="#E6E6E6"/>
<path d="M1334.64 1547.04C1405.99 1547.04 1463.83 1524.68 1463.83 1497.1C1463.83 1469.51 1405.99 1447.15 1334.64 1447.15C1263.29 1447.15 1205.45 1469.51 1205.45 1497.1C1205.45 1524.68 1263.29 1547.04 1334.64 1547.04Z" fill="#E6E6E6"/>
<path d="M1442.44 1518.32L1235.75 1493.53C1226.2 1492.39 1216.97 1489.37 1208.59 1484.66C1200.21 1479.95 1192.84 1473.63 1186.89 1466.07C1180.95 1458.51 1176.56 1449.85 1173.96 1440.6C1171.37 1431.34 1170.62 1421.66 1171.77 1412.11C1172.91 1402.56 1175.93 1393.33 1180.64 1384.95C1185.35 1376.57 1191.67 1369.2 1199.23 1363.25C1206.79 1357.31 1215.44 1352.92 1224.7 1350.32C1233.96 1347.73 1243.64 1346.98 1253.19 1348.13L1459.88 1372.92C1479.16 1375.23 1496.73 1385.11 1508.73 1400.38C1520.73 1415.65 1526.17 1435.06 1523.86 1454.34C1521.55 1473.62 1511.67 1491.2 1496.4 1503.19C1481.13 1515.19 1461.72 1520.64 1442.44 1518.32Z" fill="#2F2E41"/>
<path d="M1401.92 998.49L1432.21 1027.88L1470.94 1045.06C1467.55 1047.4 1449.72 1287.65 1472.7 1297.65C1492.26 1306.16 1472.32 1313.21 1473 1333.02C1473.67 1352.84 1476.21 1393.61 1476.21 1393.61C1368.69 1435 1326.96 1439.01 1264.46 1367.99C1264.03 1364 1264.97 1359.99 1267.13 1356.62C1269.29 1353.25 1272.54 1350.72 1276.33 1349.44C1290.19 1344.09 1269.02 1308.82 1280.32 1304.7C1291.61 1300.58 1282.25 1251.98 1282.25 1251.98L1258.19 1142.47L1252.3 1125.93L1282.7 1032.68L1317.01 1024.62L1333.93 994.555L1401.92 998.49Z" fill="#E09F7D"/>
<path d="M996.862 1220.41C1000.15 1217.71 1004 1215.76 1008.12 1214.71C1012.24 1213.66 1016.55 1213.52 1020.73 1214.31C1024.91 1215.1 1028.87 1216.8 1032.32 1219.29C1035.77 1221.77 1038.64 1224.98 1040.72 1228.7L1142.56 1210.55L1121.29 1259.93L1027.85 1269.58C1021.38 1272.66 1014 1273.26 1007.12 1271.27C1000.24 1269.27 994.331 1264.82 990.512 1258.76C986.693 1252.7 985.23 1245.44 986.4 1238.37C987.571 1231.31 991.293 1224.91 996.863 1220.41H996.862Z" fill="#A0616A"/>
<path d="M1102.16 1263.62C1111.1 1272.86 1119.88 1271.75 1128.53 1262.17L1249.72 1255.46L1250.09 1254.76C1250.52 1253.95 1276.05 1205.57 1298.71 1160.29C1302.19 1153.32 1305.61 1146.42 1308.86 1139.78C1310.27 1136.91 1311.63 1134.1 1312.97 1131.34C1321.96 1112.72 1329.13 1096.98 1331.92 1088.71C1338.4 1070.2 1338.35 1050.03 1331.78 1031.56L1331.59 1031.11L1331.17 1030.87C1322.57 1025.94 1312.55 1024.1 1302.75 1025.63C1292.96 1027.17 1283.98 1031.99 1277.3 1039.32C1245.23 1074.84 1221.86 1117.34 1209.02 1163.45L1201.75 1189.69L1126.75 1208.27C1119.09 1204.14 1112.49 1205.16 1107.3 1213.09L1102.16 1263.62Z" fill="#E09F7D"/>
<path d="M1219.9 1760.53L1245.63 1784.01L1348.47 1695.91L1310.48 1661.25L1219.9 1760.53Z" fill="#FFB6B6"/>
<path d="M1221 1746.13L1228.24 1752.74L1267.02 1767.05L1271.69 1792.39L1271.69 1792.39C1280.25 1800.21 1285.36 1811.11 1285.89 1822.69C1286.42 1834.28 1282.33 1845.6 1274.51 1854.17L1273.56 1855.22L1190.57 1779.49L1221 1746.13Z" fill="#2F2E41"/>
<path d="M1414.87 1486.44L1392.66 1443.54C1394.51 1400.1 1432.19 1366.16 1475.45 1370.49C1499.54 1372.91 1521.65 1387.25 1529.5 1427.74C1549.7 1531.85 1306.03 1737.92 1306.03 1737.92L1263.71 1709.55L1262.77 1681.2L1287.58 1667.15L1288.49 1643.03L1312.03 1632.92L1414.87 1486.44Z" fill="#2F2E41"/>
<path d="M1415.5 922.738C1419.01 886.223 1392.26 853.775 1355.75 850.265C1319.23 846.754 1286.79 873.51 1283.28 910.026C1279.77 946.542 1306.52 978.989 1343.03 982.5C1379.55 986.01 1411.99 959.254 1415.5 922.738Z" fill="#A0616A"/>
<path d="M1402.87 1754.02L1373.79 1773.2L1285.93 1670.16L1328.85 1641.84L1402.87 1754.02Z" fill="#FFB6B6"/>
<path d="M1428.88 1777.31L1335.11 1839.19L1334.33 1838C1327.94 1828.32 1325.66 1816.5 1327.99 1805.14C1330.32 1793.78 1337.07 1783.81 1346.74 1777.42L1346.75 1777.42L1355.3 1753.12L1395.83 1745.03L1404.02 1739.62L1428.88 1777.31Z" fill="#2F2E41"/>
<path d="M1269.95 1482.27L1297.45 1437.57C1302.38 1394.37 1270.45 1354.98 1227.05 1352.52C1202.87 1351.15 1178.8 1361.87 1164.73 1400.64C1128.57 1500.34 1337.16 1741.85 1337.16 1741.85L1383.38 1720.42L1388.73 1692.56L1366.41 1674.82L1369.27 1650.85L1347.59 1637.2L1269.95 1482.27Z" fill="#2F2E41"/>
<path d="M1372.11 932.213C1372.17 931.357 1372.23 930.499 1372.29 929.638C1372 930.466 1371.94 931.354 1372.11 932.213Z" fill="#2F2E41"/>
<path d="M1429.25 901.467C1426.88 890.564 1421.57 880.516 1413.91 872.402C1406.25 864.289 1396.52 858.418 1385.77 855.42C1382.82 850.485 1378.8 846.273 1374.02 843.094C1369.23 839.914 1363.79 837.848 1358.09 837.047C1347.4 835.624 1336.69 838.794 1326.41 842.061C1320.06 844.08 1313.73 846.149 1307.41 848.27C1302.27 849.997 1295.95 853.94 1297.65 859.09C1296.35 858.413 1294.87 858.184 1293.43 858.439C1291.98 858.694 1290.67 859.418 1289.68 860.499C1288.69 861.58 1288.09 862.957 1287.97 864.415C1287.84 865.874 1288.2 867.333 1288.99 868.565C1286.61 865.489 1281.1 867.462 1279.77 871.121C1278.44 874.78 1280 878.836 1281.94 882.21C1287.78 891.807 1296.64 899.195 1307.13 903.219C1317.61 907.243 1329.14 907.675 1339.9 904.446C1346.19 902.387 1352.62 899.005 1359.07 900.516C1365.15 901.942 1369.53 907.583 1371.26 913.588C1372.53 918.839 1372.87 924.269 1372.29 929.638C1373.11 927.732 1374.65 926.229 1376.58 925.458C1378.5 924.688 1380.66 924.713 1382.57 925.528C1387.16 927.819 1388.81 933.861 1387.67 938.868C1386.53 943.876 1374.59 963.291 1371.43 967.342C1367.98 971.165 1365.43 975.723 1363.99 980.672C1375.32 978.93 1386.64 977.188 1397.97 975.447L1398.58 976.064C1416.14 962.418 1433.7 923.258 1429.25 901.467Z" fill="#2F2E41"/>
<path d="M1266.53 1369.28C1268.1 1365.32 1270.51 1361.75 1273.61 1358.83C1276.7 1355.91 1280.4 1353.7 1284.44 1352.36C1288.48 1351.03 1292.76 1350.59 1296.99 1351.09C1301.21 1351.58 1305.28 1353 1308.9 1355.24L1389.13 1289.94L1394.5 1343.43L1317.49 1397.23C1313.33 1403.07 1307.17 1407.17 1300.19 1408.76C1293.2 1410.36 1285.87 1409.34 1279.59 1405.89C1273.31 1402.44 1268.51 1396.81 1266.11 1390.06C1263.7 1383.32 1263.85 1375.92 1266.53 1369.28L1266.53 1369.28Z" fill="#A0616A"/>
<path d="M1393.47 1353.35C1403.14 1356.81 1410.62 1354.24 1413.67 1339.51L1504.62 1277.19L1504.6 1276.4C1516.47 1275.48 1513.75 1100.07 1495.56 1091.49C1492.24 1072.17 1482.41 1054.56 1467.7 1041.6L1467.32 1041.3L1466.83 1041.29C1456.92 1041.16 1447.26 1044.41 1439.44 1050.5C1431.63 1056.6 1426.12 1065.18 1423.83 1074.82C1413.03 1121.45 1413.22 1169.95 1424.38 1216.5L1430.76 1242.97L1391.06 1276.58C1380.08 1273.7 1375.22 1278.12 1376.02 1289.3L1393.47 1353.35Z" fill="#E09F7D"/>
<path d="M699.669 1504L682.706 1510.68L820.867 1861.27L837.83 1854.58L699.669 1504Z" fill="#E6E6E6"/>
<path d="M587.491 1854.58L604.454 1861.27L742.614 1510.68L725.651 1504L587.491 1854.58Z" fill="#E6E6E6"/>
<path d="M705.57 1568.07C772.141 1568.07 826.108 1547.21 826.108 1521.47C826.108 1495.74 772.141 1474.88 705.57 1474.88C638.998 1474.88 585.031 1495.74 585.031 1521.47C585.031 1547.21 638.998 1568.07 705.57 1568.07Z" fill="#E6E6E6"/>
<path d="M632.433 984.48C635.165 1001.57 644.571 1016.87 658.582 1027.03C672.594 1037.18 690.064 1041.36 707.153 1038.63C709.088 1038.32 710.997 1037.93 712.878 1037.45C728.67 1033.45 742.396 1023.69 751.356 1010.09C760.317 996.481 763.863 980.016 761.299 963.929C760.488 958.807 759.063 953.802 757.055 949.021C750.896 934.293 739.551 922.334 725.168 915.408C710.785 908.483 694.362 907.07 679.008 911.439C663.654 915.808 650.434 925.654 641.851 939.115C633.268 952.575 629.918 968.715 632.434 984.48H632.433Z" fill="#FFB6B6"/>
<path d="M984.221 1809.47L1013.53 1800.75L994.142 1680.95L950.891 1693.82L984.221 1809.47Z" fill="#FFB6B6"/>
<path d="M804.503 1762.18C806.288 1763.73 808.075 1765.27 809.883 1766.81C813.478 1769.88 817.12 1772.92 820.768 1775.91C822.602 1777.42 824.455 1778.92 826.293 1780.4L826.283 1780.46L826.4 1780.5L826.437 1780.53L829.398 1781.77L835.671 1770.79L838.564 1765.73L842.653 1758.56L850.144 1745.45L889.588 1676.42L848.038 1658.9L845.368 1665.27L845.348 1665.27L844.028 1668.42L819.216 1727.3L814.151 1739.34L813.991 1739.7L810.945 1746.89L808.317 1753.12L805.389 1760.08L804.503 1762.18Z" fill="#FFB6B6"/>
<path d="M587.406 1463.43C589.45 1468.26 591.558 1473.09 593.691 1477.88C597.653 1486.79 601.774 1495.61 606.054 1504.33C606.051 1504.35 606.071 1504.35 606.088 1504.37C608.837 1507.87 611.985 1511.03 615.466 1513.8C615.607 1513.94 615.775 1514.05 615.919 1514.18C618.489 1516.18 621.295 1517.86 624.276 1519.17C625.352 1519.63 626.448 1520.09 627.525 1520.55C631.414 1522.15 635.286 1523.6 639.154 1524.95C646.038 1527.34 652.91 1529.36 659.773 1531.01C660.323 1531.16 660.877 1531.29 661.431 1531.42C689.731 1538.05 718.14 1539.09 748.111 1538.15C762.909 1537.71 778.092 1536.77 793.815 1535.79C798.954 1535.46 804.111 1535.15 809.328 1534.84C809.72 1534.82 810.137 1534.79 810.549 1534.77C818.003 1534.33 825.573 1533.93 833.321 1533.58C843.073 1533.13 853.115 1532.8 863.522 1532.62L860.542 1546.77C858.204 1557.65 854.21 1568.11 848.698 1577.78C842.373 1589.74 837.367 1599.2 841.291 1621.18L843.176 1631.81C840.578 1636.53 839.11 1641.8 838.887 1647.18C838.664 1652.57 839.692 1657.93 841.891 1662.85L842.423 1664.02L801.755 1732.88L799.12 1737.34L813.987 1739.7L832.272 1742.62L863.266 1747.53L922.198 1664.88L925.017 1660.94L925.052 1660.72L947.739 1487.56C947.92 1486.03 948.044 1484.47 948.085 1482.92C948.364 1475.87 947.239 1468.85 944.773 1462.24C942.308 1455.64 938.553 1449.59 933.726 1444.46C929.106 1439.5 923.547 1435.51 917.372 1432.73C911.197 1429.94 904.53 1428.41 897.757 1428.22L882.137 1427.77L850.222 1426.86L827.739 1426.23L827.289 1426.23L760.988 1424.34L759.337 1404.59L758.527 1404.13L732.762 1389.78L643.651 1340.11L643.424 1340L637.562 1336.73L636.632 1337.81C636.355 1338.14 636.077 1338.46 635.82 1338.79C627.924 1348.84 621.074 1359.68 615.378 1371.12C605.892 1389.79 597.477 1408.98 590.173 1428.6C589.853 1429.46 589.566 1430.23 589.312 1430.93L589.217 1431.14C589.103 1431.47 589.029 1431.68 588.999 1431.74C585.379 1440.48 585.144 1451.81 587.406 1463.43Z" fill="#2F2E41"/>
<path d="M593.478 1399.25C593.981 1398.02 594.567 1396.78 595.166 1395.58C599.855 1386.53 605.039 1377.75 610.695 1369.28C617.065 1359.62 624.493 1349.37 633.147 1338.38C637.334 1333.05 641.805 1327.53 646.559 1321.81C648.941 1318.95 651.405 1316.04 653.952 1313.08C654.056 1312.94 654.166 1312.81 654.282 1312.68L655.014 1311.81L746.633 1339.16L773.436 1349.27L780.081 1367.04L779.9 1371.43C779.92 1371.43 779.92 1371.43 779.897 1371.45L779.44 1383.39L779.437 1383.41L778.845 1399.2L779.008 1399.2L831.794 1400.69L886.191 1402.23L915.411 1403.06C922.184 1403.25 928.852 1404.78 935.027 1407.57C941.202 1410.36 946.76 1414.35 951.379 1419.31C956.205 1424.44 959.96 1430.49 962.425 1437.09C964.89 1443.69 966.016 1450.72 965.738 1457.76C965.696 1459.19 965.588 1460.65 965.423 1462.08L982.297 1530.37C992.398 1571.22 996.277 1613.35 993.803 1655.35L1003.58 1721.82L1000.72 1721.64L958.122 1718.89L946.872 1718.17L928.105 1678.67C925.967 1674.16 923.988 1669.56 922.205 1664.89C919.261 1657.26 916.806 1649.44 914.856 1641.49L881.954 1507.46C877.761 1507.52 873.614 1507.55 869.512 1507.54C850.528 1507.61 832.372 1507.25 815.044 1506.45C758.7 1503.86 710.682 1496.75 668.832 1484.74C657.078 1481.38 645.797 1477.63 634.989 1473.47C631.023 1471.96 627.122 1470.4 623.284 1468.77C622.378 1468.4 621.493 1468.03 620.61 1467.65C612.679 1464.21 605.737 1458.83 600.421 1452.01C595.105 1445.19 591.584 1437.15 590.18 1428.61C588.46 1418.71 589.604 1408.52 593.478 1399.25Z" fill="#2F2E41"/>
<path d="M978.465 1789.49L1010.18 1780.03L1015.15 1778.54L1019.66 1797.84L1069.41 1817.35C1071.87 1818.32 1073.96 1820.04 1075.37 1822.27C1076.78 1824.51 1077.44 1827.13 1077.25 1829.77C1077.06 1832.4 1076.04 1834.91 1074.32 1836.92C1072.61 1838.93 1070.3 1840.34 1067.72 1840.94L1014.11 1853.52L1000.4 1836.6L1001.26 1856.53L981.066 1861.27L970.757 1791.8L978.465 1789.49Z" fill="#2F2E41"/>
<path d="M801.756 1732.88L799.12 1737.34L801.002 1737.64L801.756 1732.88Z" fill="#2F2E41"/>
<path d="M811.105 1740.29L840.293 1755.88L844.875 1758.32L834.503 1775.21L856.124 1824.08C857.195 1826.49 857.466 1829.19 856.897 1831.77C856.328 1834.35 854.949 1836.68 852.961 1838.42C850.973 1840.16 848.481 1841.21 845.849 1841.44C843.217 1841.66 840.582 1841.03 838.331 1839.65L791.385 1810.86L793.548 1789.19L780.138 1803.96L762.454 1793.12L804.004 1736.5L811.105 1740.29Z" fill="#2F2E41"/>
<path d="M1015.25 1361.57C1012.15 1362.53 1008.87 1362.78 1005.66 1362.33C1002.44 1361.88 999.366 1360.73 996.645 1358.96C993.923 1357.19 991.622 1354.84 989.905 1352.09C988.187 1349.33 987.095 1346.23 986.704 1343.01L909.575 1326.3L938.89 1297.62L1007.64 1317.89C1013.1 1317.59 1018.47 1319.3 1022.75 1322.71C1027.03 1326.11 1029.91 1330.96 1030.85 1336.35C1031.79 1341.73 1030.72 1347.28 1027.84 1351.93C1024.97 1356.57 1020.49 1360.01 1015.25 1361.57V1361.57Z" fill="#FFB6B6"/>
<path d="M788.73 1325.54L646.358 1203.87C635.083 1194.21 628.099 1180.48 626.939 1165.68C625.778 1150.88 630.535 1136.22 640.167 1124.93C645.506 1118.68 652.156 1113.68 659.643 1110.29C667.131 1106.9 675.272 1105.2 683.49 1105.31C691.708 1105.43 699.801 1107.35 707.193 1110.94C714.586 1114.53 721.098 1119.7 726.266 1126.09L830.819 1255.38L971.057 1293.24L967.42 1339.57L788.73 1325.54Z" fill="#ED4548"/>
<path d="M622.689 1200.63L619.674 1311.06C578.177 1381.17 573.457 1415.22 584.944 1433.37L777.539 1368.59L780.414 1361.73L767.358 1314.83L783.512 1263.91C786.357 1258.59 824.973 1225.91 788.773 1163.91L715.948 1065.8L689.62 1063.68C680 1088.38 665.33 1100.63 647.998 1106.32C608.805 1142.25 614.562 1148.09 622.689 1200.63Z" fill="#ED4548"/>
<path d="M769.769 937.428C768.756 940.296 767.163 942.923 765.089 945.147C763.015 947.371 760.505 949.144 757.715 950.354C753.265 946.155 748.452 942.358 743.332 939.008C745.557 943.526 747.381 948.231 748.781 953.069C748.68 953.089 748.599 953.089 748.498 953.109C739.26 954.345 729.981 952.056 720.946 949.787L722.202 950.941C722.279 958.185 720.288 965.3 716.463 971.451C712.638 977.602 707.137 982.533 700.606 985.666C693.374 988.989 683.832 991.299 682.049 999.038C680.469 1005.89 686.405 1012.02 692.118 1016.1C697.831 1020.17 704.516 1024.63 705.448 1031.6C706.947 1042.94 692.402 1050.13 689.93 1061.3C687.783 1070.86 695.177 1079.98 703.301 1085.45C711.425 1090.92 720.986 1094.68 727.267 1102.22C738.389 1115.57 734.803 1136.86 723.337 1149.93C722.096 1151.36 720.77 1152.7 719.366 1153.96C716.226 1150 712.793 1146.27 709.095 1142.82C704.645 1138.62 699.831 1134.83 694.711 1131.48C696.936 1135.99 698.76 1140.7 700.161 1145.54C701.99 1151.74 703.152 1158.13 703.625 1164.58C695.367 1168.5 686.706 1171.51 677.795 1173.55C655.362 1179.05 632.28 1181.42 609.2 1180.61C598.657 1180.44 588.176 1178.96 578.001 1176.19C582.659 1161.47 584.022 1145.91 581.992 1130.6C576.221 1144.05 567.291 1155.91 555.96 1165.17C546.459 1157.69 539.409 1147.1 538.234 1135.16C536.795 1120.49 544.169 1106.48 552.354 1094.22C560.559 1081.96 569.999 1070.01 573.605 1055.72C578.872 1034.9 570.83 1013.24 569.796 991.785C569.142 978.293 571.281 964.81 576.078 952.183C580.876 939.555 588.229 928.054 597.677 918.4C607.125 908.746 618.464 901.147 630.985 896.079C643.506 891.011 656.939 888.583 670.441 888.947C682.613 889.66 694.692 891.505 706.522 894.457C712.944 895.835 719.346 897.233 725.767 898.611C733.708 900.083 741.495 902.295 749.024 905.215C755.589 907.778 761.356 912.035 765.738 917.553C767.893 920.333 769.377 923.573 770.076 927.02C770.776 930.467 770.671 934.028 769.769 937.428Z" fill="#2F2E41"/>
<path d="M1615.39 1342.38H514.931V1341.16C514.946 1327.95 520.202 1315.28 529.546 1305.94C538.89 1296.59 551.558 1291.33 564.772 1291.32H1565.55C1578.76 1291.33 1591.43 1296.59 1600.77 1305.94C1610.12 1315.28 1615.37 1327.95 1615.39 1341.16V1342.38Z" fill="#CCCCCC"/>
<path d="M1696.79 1854.88L1679.83 1861.84L1541.67 1334.69L1558.64 1327.73L1696.79 1854.88Z" fill="#CCCCCC"/>
<path d="M1446.46 1854.88L1463.42 1861.84L1601.58 1334.69L1584.62 1327.73L1446.46 1854.88Z" fill="#CCCCCC"/>
<path d="M681.838 1854.88L664.875 1861.84L526.716 1334.69L543.679 1327.73L681.838 1854.88Z" fill="#CCCCCC"/>
<path d="M431.5 1854.88L448.463 1861.84L586.622 1334.69L569.66 1327.73L431.5 1854.88Z" fill="#CCCCCC"/>
<path d="M1190.71 1252.74C1191.04 1251.75 1191.16 1250.7 1191.05 1249.66C1190.93 1248.62 1190.6 1247.62 1190.07 1246.72C1189.54 1245.82 1188.82 1245.04 1187.97 1244.44C1187.11 1243.84 1186.14 1243.44 1185.11 1243.24C1184.73 1243.16 1184.34 1243.11 1183.96 1243.1L1137.12 1241.89C1136.07 1241.88 1135.03 1242.09 1134.06 1242.51C1133.1 1242.92 1132.23 1243.54 1131.52 1244.31C1130.86 1244.17 1130.2 1244.1 1129.52 1244.1C1128.07 1244.06 1126.61 1244.31 1125.25 1244.84C1123.89 1245.36 1122.64 1246.15 1121.59 1247.15C1120.53 1248.16 1119.68 1249.36 1119.09 1250.69C1118.49 1252.03 1118.17 1253.46 1118.13 1254.92C1118.1 1256.38 1118.35 1257.83 1118.87 1259.19C1119.4 1260.56 1120.19 1261.8 1121.19 1262.86C1122.2 1263.91 1123.4 1264.76 1124.74 1265.35C1126.07 1265.95 1127.51 1266.27 1128.97 1266.3C1130.65 1266.34 1132.31 1265.99 1133.84 1265.3L1138.15 1311.38C1138.56 1312.89 1139.45 1314.23 1140.69 1315.2C1141.93 1316.16 1143.45 1316.7 1145.02 1316.73L1175.47 1317.51C1177.03 1317.54 1178.55 1317.07 1179.83 1316.18C1181.11 1315.29 1182.07 1314.01 1182.57 1312.53L1190.71 1252.74ZM1129.06 1263.12C1126.96 1263.07 1124.97 1262.18 1123.52 1260.66C1122.07 1259.14 1121.28 1257.1 1121.33 1255C1121.38 1252.9 1122.26 1250.9 1123.78 1249.45C1125.3 1247.99 1127.33 1247.2 1129.44 1247.24C1129.59 1247.24 1129.72 1247.31 1129.86 1247.31C1129.53 1248.59 1129.54 1249.93 1129.89 1251.19L1132.95 1262.17C1131.77 1262.84 1130.42 1263.17 1129.06 1263.12Z" fill="#ED4548"/>
<path d="M1185.11 1243.24C1184.11 1248.95 1172.9 1252.96 1159.41 1252.26C1147 1251.69 1136.86 1247.34 1135 1242.17C1135.69 1241.97 1136.4 1241.88 1137.12 1241.89L1183.96 1243.1C1184.34 1243.12 1184.73 1243.16 1185.11 1243.24Z" fill="white"/>
<path d="M1034.72 1234.51C1035.05 1233.52 1035.16 1232.47 1035.05 1231.43C1034.94 1230.39 1034.61 1229.39 1034.08 1228.49C1033.55 1227.59 1032.83 1226.81 1031.98 1226.21C1031.12 1225.61 1030.15 1225.2 1029.12 1225.01C1028.74 1224.93 1028.35 1224.88 1027.97 1224.87L981.13 1223.66C980.08 1223.65 979.038 1223.86 978.073 1224.27C977.109 1224.69 976.242 1225.3 975.529 1226.07C974.873 1225.93 974.204 1225.87 973.533 1225.87C970.591 1225.8 967.741 1226.9 965.609 1228.93C963.478 1230.95 962.239 1233.75 962.165 1236.69C962.091 1239.63 963.188 1242.48 965.216 1244.62C967.243 1246.75 970.034 1247.99 972.976 1248.07C974.654 1248.1 976.318 1247.76 977.847 1247.07L982.155 1293.14C982.57 1294.66 983.463 1296 984.702 1296.96C985.941 1297.93 987.459 1298.47 989.029 1298.5L1019.48 1299.28C1021.03 1299.31 1022.56 1298.84 1023.84 1297.95C1025.12 1297.05 1026.08 1295.78 1026.58 1294.3L1034.72 1234.51ZM973.073 1244.89C970.971 1244.84 968.977 1243.95 967.528 1242.43C966.078 1240.9 965.292 1238.87 965.341 1236.77C965.391 1234.66 966.271 1232.67 967.79 1231.21C969.309 1229.76 971.343 1228.97 973.445 1229.01C973.594 1229.01 973.725 1229.08 973.874 1229.08C973.54 1230.35 973.548 1231.69 973.897 1232.96L976.963 1243.94C975.777 1244.6 974.432 1244.93 973.073 1244.89Z" fill="#ED4548"/>
<path d="M1029.12 1225.01C1028.12 1230.72 1016.9 1234.73 1003.42 1234.03C991.011 1233.46 980.869 1229.1 979.011 1223.94C979.698 1223.74 980.413 1223.64 981.13 1223.66L1027.97 1224.87C1028.35 1224.88 1028.74 1224.93 1029.12 1225.01Z" fill="white"/>
<path d="M1011.76 1312.18C1008.77 1313.45 1005.54 1314.06 1002.3 1313.94C999.052 1313.83 995.872 1313.01 992.979 1311.54C990.086 1310.06 987.552 1307.97 985.555 1305.41C983.557 1302.85 982.145 1299.88 981.418 1296.72L902.961 1288.2L929.102 1256.6L999.599 1269.54C1005 1268.67 1010.52 1269.81 1015.13 1272.74C1019.75 1275.68 1023.12 1280.2 1024.62 1285.46C1026.12 1290.71 1025.64 1296.34 1023.27 1301.26C1020.9 1306.19 1016.8 1310.07 1011.76 1312.18Z" fill="#FFB6B6"/>
<path d="M782.704 1300.14L628.342 1194.09C616.115 1185.68 607.728 1172.75 605.019 1158.15C602.311 1143.56 605.503 1128.48 613.895 1116.24C618.548 1109.46 624.636 1103.8 631.726 1099.64C638.816 1095.48 646.735 1092.94 654.919 1092.19C663.103 1091.43 671.352 1092.49 679.081 1095.29C686.81 1098.08 693.829 1102.54 699.64 1108.36L817.193 1225.95L960.632 1248.87L961.88 1295.32L782.704 1300.14Z" fill="#ED4548"/>
<path d="M2150.09 1865.25L2.90597 1866C2.13669 1866 1.3997 1865.69 0.85652 1865.15C0.313343 1864.6 0.00830078 1863.86 0.00830078 1863.09C0.00830078 1862.32 0.313343 1861.59 0.85652 1861.04C1.3997 1860.5 2.13669 1860.19 2.90597 1860.19L2150.09 1859.44C2150.86 1859.44 2151.6 1859.74 2152.15 1860.29C2152.69 1860.83 2153 1861.57 2153 1862.34C2153 1863.11 2152.69 1863.85 2152.15 1864.4C2151.6 1864.94 2150.86 1865.25 2150.09 1865.25Z" fill="#CACACA"/>
</g>
<defs>
<clipPath id="clip0_2708_5">
<rect width="2153" height="1866" fill="white"/>
</clipPath>
</defs>
</svg>
