<svg width="119" height="167" viewBox="0 0 119 167" fill="none" xmlns="http://www.w3.org/2000/svg">
<path d="M74.5336 2.1945C42.8838 -6.28602 10.2639 12.4596 1.81847 43.9782C-6.31094 74.3175 26.7743 159.155 28.1874 162.751L29.5054 166.11C29.6591 166.505 29.9929 166.801 30.3983 166.91C30.81 167.02 31.2446 166.93 31.5774 166.666L34.3972 164.415C37.4202 162.008 108.49 105.078 116.62 74.7391C125.065 43.2205 106.184 10.6752 74.5336 2.1945ZM64.7032 38.8821C76.0434 41.9207 82.8041 53.5749 79.7783 64.8674C76.754 76.1541 65.07 82.8723 53.7302 79.8338C42.3967 76.797 35.6308 65.1352 38.6551 53.8485C41.6809 42.556 53.3692 35.8452 64.7032 38.8821Z" fill="#ED4548"/>
</svg>
