<svg width="1299" height="195" viewBox="0 0 1299 195" fill="none" xmlns="http://www.w3.org/2000/svg">
<path d="M32.04 142.68C32.04 149.4 34.76 153.72 39.08 157.08C41.48 158.84 42.92 158.84 44.68 155.64C54.12 138.52 69.64 116.92 83.72 98.84C75.88 114.84 68.04 131.64 66.12 139.16V139C65.16 142.52 64.84 145.56 64.84 148.12C64.84 152.76 66.6 155.48 68.52 157.24C71.08 159.48 72.52 159.48 73.64 156.28C81.48 133.88 97.32 102.2 108.36 81.56C110.44 77.24 112.2 72.76 112.2 68.44C112.2 64.6 110.76 60.76 107.56 57.4C104.52 54.52 102.44 54.68 100.36 58.04C82.6 86.2 65.48 101.88 48.68 127.32C54.44 105.88 57.64 96.12 62.6 81.72C64.04 77.08 64.84 73.08 64.84 70.2C64.84 65.08 62.6 60.92 58.28 57.24C55.24 54.84 52.68 55.8 50.76 58.36C33.96 80.92 8.84 122.84 2.28 138.84C0.84 142.36 0.0399998 145.88 0.0399998 148.92C0.0399998 152.44 1.16 155.16 2.92 156.92C5 159 7.4 158.52 8.36 156.28C17 136.44 31.24 113.4 43.72 94.2C38.28 111.8 33.64 129.88 32.52 137.08C32.2 139.16 32.04 140.92 32.04 142.68ZM134.996 100.44C136.756 101.88 133.396 109.4 128.756 115.64C125.556 119.96 120.436 124.76 116.596 124.76C115.476 124.76 114.356 124.44 113.076 123.64C120.756 108.28 132.596 98.52 134.996 100.44ZM146.996 106.84C146.996 104.76 146.356 102.36 145.396 100.92C143.156 97.72 139.956 95.16 135.476 92.6C133.876 91.64 132.116 91.32 129.876 91.32C120.596 91.32 107.636 99.8 99.3163 116.76C95.9563 123.16 94.3562 129.4 94.3562 135.16C94.3562 147.96 102.516 157.72 117.396 157.56C129.876 157.4 142.676 149.88 149.396 140.12C152.276 135.8 152.116 131.16 151.636 129.72C150.356 126.52 148.276 126.84 146.516 129.4C139.956 139.32 129.236 151.16 117.076 151.16C112.276 151.16 109.396 146.2 109.396 139.16C109.396 136.28 109.876 132.92 110.836 129.72C114.516 132.12 118.356 133.24 122.196 133.24C136.276 133.24 146.996 116.44 146.996 106.84ZM186.246 100.44C188.006 101.88 184.646 109.4 180.006 115.64C176.806 119.96 171.686 124.76 167.846 124.76C166.726 124.76 165.606 124.44 164.326 123.64C172.006 108.28 183.846 98.52 186.246 100.44ZM198.246 106.84C198.246 104.76 197.606 102.36 196.646 100.92C194.406 97.72 191.206 95.16 186.726 92.6C185.126 91.64 183.366 91.32 181.126 91.32C171.846 91.32 158.886 99.8 150.566 116.76C147.206 123.16 145.606 129.4 145.606 135.16C145.606 147.96 153.766 157.72 168.646 157.56C181.126 157.4 193.926 149.88 200.646 140.12C203.526 135.8 203.366 131.16 202.886 129.72C201.606 126.52 199.526 126.84 197.766 129.4C191.206 139.32 180.486 151.16 168.326 151.16C163.526 151.16 160.646 146.2 160.646 139.16C160.646 136.28 161.126 132.92 162.086 129.72C165.766 132.12 169.606 133.24 173.446 133.24C187.526 133.24 198.246 116.44 198.246 106.84ZM196.216 139.48C196.216 150.52 203.576 157.4 212.056 157.4C225.496 157.4 236.216 143.64 238.456 138.84C240.216 135.16 240.856 132.76 240.056 129.4C238.936 125.08 235.256 125.4 233.496 129.24C227.896 141.24 219.576 151.32 213.336 151.32C210.616 151.32 209.016 147.96 209.016 143.16C209.016 139.64 209.976 135.48 211.896 131.16C217.496 119 226.616 103.16 232.696 92.76C236.216 92.28 240.376 91.96 243.256 92.28C247.096 92.76 248.216 90.84 246.616 87.96C245.496 86.04 242.776 83.48 237.816 82.84C239.736 78.36 240.376 74.68 240.376 71.8C240.376 69.88 239.736 67.16 238.616 65.24C236.856 62.2 234.936 62.04 232.536 65.56C228.856 70.84 225.496 76.12 220.536 84.76C217.016 85.08 212.696 85.24 209.016 85.08C205.336 84.92 203.736 86.52 205.976 89.88C207.256 91.8 210.136 93.56 215.096 94.2C208.696 105.72 202.616 118.36 199.416 126.2C197.176 131.48 196.216 135.96 196.216 139.48ZM294.071 142.68C294.071 149.4 296.791 153.72 301.111 157.08C303.511 158.84 304.951 158.84 306.711 155.64C316.151 138.52 331.671 116.92 345.751 98.84C337.911 114.84 330.071 131.64 328.151 139.16V139C327.191 142.52 326.871 145.56 326.871 148.12C326.871 152.76 328.631 155.48 330.551 157.24C333.111 159.48 334.551 159.48 335.671 156.28C343.511 133.88 359.351 102.2 370.391 81.56C372.471 77.24 374.231 72.76 374.231 68.44C374.231 64.6 372.791 60.76 369.591 57.4C366.551 54.52 364.471 54.68 362.391 58.04C344.631 86.2 327.511 101.88 310.711 127.32C316.471 105.88 319.671 96.12 324.631 81.72C326.071 77.08 326.871 73.08 326.871 70.2C326.871 65.08 324.631 60.92 320.311 57.24C317.271 54.84 314.711 55.8 312.791 58.36C295.991 80.92 270.871 122.84 264.311 138.84C262.871 142.36 262.071 145.88 262.071 148.92C262.071 152.44 263.191 155.16 264.951 156.92C267.031 159 269.431 158.52 270.391 156.28C279.031 136.44 293.271 113.4 305.751 94.2C300.311 111.8 295.671 129.88 294.551 137.08C294.231 139.16 294.071 140.92 294.071 142.68ZM397.028 100.44C398.788 101.88 395.428 109.4 390.788 115.64C387.588 119.96 382.468 124.76 378.628 124.76C377.508 124.76 376.388 124.44 375.108 123.64C382.788 108.28 394.628 98.52 397.028 100.44ZM409.028 106.84C409.028 104.76 408.388 102.36 407.428 100.92C405.188 97.72 401.988 95.16 397.508 92.6C395.908 91.64 394.148 91.32 391.908 91.32C382.628 91.32 369.668 99.8 361.348 116.76C357.988 123.16 356.387 129.4 356.387 135.16C356.387 147.96 364.548 157.72 379.428 157.56C391.908 157.4 404.708 149.88 411.428 140.12C414.308 135.8 414.148 131.16 413.668 129.72C412.388 126.52 410.308 126.84 408.548 129.4C401.988 139.32 391.268 151.16 379.108 151.16C374.308 151.16 371.428 146.2 371.428 139.16C371.428 136.28 371.908 132.92 372.868 129.72C376.548 132.12 380.388 133.24 384.228 133.24C398.307 133.24 409.028 116.44 409.028 106.84ZM441.834 137.24C440.554 141.08 439.914 144.92 439.914 147.16C439.914 151.16 441.194 154.04 442.794 155.64C445.354 158.52 446.954 158.04 448.234 155C459.274 130.36 477.034 99.16 486.794 81.88C490.954 74.36 492.874 67.64 492.874 63.32C492.874 60.76 492.234 58.52 491.434 56.92C489.674 53.56 487.274 53.08 484.714 56.76C472.074 74.84 450.154 115.48 441.834 137.24ZM497.334 92.76C495.734 89.88 493.334 89.72 491.254 92.76C481.334 107.64 469.014 130.04 465.974 139C465.014 142.2 464.534 144.92 464.534 147.32C464.534 151.16 465.814 153.88 468.054 156.12C470.614 158.68 472.694 157.72 473.814 155.16C480.374 140.76 487.574 125.08 496.374 115.8C505.174 105.88 513.014 101.4 514.454 101.4C515.574 101.4 513.014 105.56 509.654 110.84C503.414 120.76 496.054 135.48 496.054 144.12C496.054 152.44 500.694 157.88 511.414 157.88C521.014 157.88 532.694 149.4 537.174 140.6C539.414 136.28 539.254 131.32 537.974 129.4C536.534 127.16 534.294 127 532.694 130.04C526.934 140.76 518.614 151.16 513.174 151.16C511.094 151.16 509.974 149.08 509.974 145.72C509.974 139.8 515.414 129.24 520.534 121.08C525.654 112.12 528.534 107 528.534 103.48C528.534 97.4 524.214 91.8 519.574 91.8C513.814 91.8 506.134 97.08 499.254 103.48C499.414 102.52 499.414 101.4 499.414 100.28C499.414 97.72 498.774 95.16 497.334 92.76ZM573.576 146.84C573.576 150.84 574.536 153.4 576.936 155.64C579.176 157.88 581.096 157.72 582.376 154.84C591.656 133.88 603.176 112.6 611.496 97.56C618.376 85.56 623.016 76.28 622.856 70.52C631.496 69.08 640.776 67.64 647.656 68.44C651.336 68.76 651.976 66.84 651.176 64.92C648.776 58.2 642.056 56.28 634.696 56.28C625.416 56.28 599.816 60.6 585.896 60.6C583.656 60.6 582.376 61.56 582.856 63.64C584.616 69.88 591.496 73.56 601.896 73.56C604.136 73.56 606.376 73.24 608.776 72.92C594.696 94.68 578.536 127.16 574.536 140.44C573.896 142.52 573.576 144.92 573.576 146.84ZM684.175 140.28C686.575 135.48 685.455 131.8 684.655 129.88C683.375 127.16 680.815 127.48 679.695 129.88C674.895 139.64 666.415 151 660.815 151C658.575 151 657.775 148.92 657.775 145.56C657.775 143 658.415 139.64 659.855 136.12C661.615 132.28 665.615 125.56 674.415 109.88C675.695 107.64 676.175 105.4 676.175 103.16C676.175 96.92 671.535 91.96 666.895 91.96C663.855 91.96 658.255 93.88 653.455 97.4C655.055 95.16 664.975 80.28 668.175 75C672.015 68.28 673.935 62.36 673.935 58.04C673.935 55.8 673.455 53.72 672.655 51.96C671.215 48.76 668.815 48.12 666.255 51.32C653.295 67.96 621.615 121.56 615.215 138.36C611.215 148.92 613.455 152.76 616.015 155.8C617.935 158.2 620.335 157.72 621.615 154.84C625.455 145.24 631.215 134.2 636.655 125.24C645.135 111.48 660.335 101.4 661.775 101.4C662.895 101.4 660.495 105.24 657.455 110.52C651.375 119.96 643.535 133.88 643.535 143.96C643.535 152.28 648.335 157.56 658.895 157.56C669.135 157.56 679.535 149.56 684.175 140.28ZM719.528 100.44C721.288 101.88 717.928 109.4 713.288 115.64C710.088 119.96 704.968 124.76 701.128 124.76C700.008 124.76 698.888 124.44 697.608 123.64C705.288 108.28 717.128 98.52 719.528 100.44ZM731.528 106.84C731.528 104.76 730.888 102.36 729.928 100.92C727.688 97.72 724.488 95.16 720.008 92.6C718.408 91.64 716.648 91.32 714.408 91.32C705.128 91.32 692.168 99.8 683.848 116.76C680.488 123.16 678.887 129.4 678.887 135.16C678.887 147.96 687.048 157.72 701.928 157.56C714.408 157.4 727.208 149.88 733.928 140.12C736.808 135.8 736.648 131.16 736.168 129.72C734.888 126.52 732.808 126.84 731.048 129.4C724.488 139.32 713.768 151.16 701.608 151.16C696.808 151.16 693.928 146.2 693.928 139.16C693.928 136.28 694.408 132.92 695.368 129.72C699.048 132.12 702.888 133.24 706.728 133.24C720.807 133.24 731.528 116.44 731.528 106.84ZM793.134 142.68C793.134 149.4 795.854 153.72 800.174 157.08C802.574 158.84 804.014 158.84 805.774 155.64C815.214 138.52 830.734 116.92 844.814 98.84C836.974 114.84 829.134 131.64 827.214 139.16V139C826.254 142.52 825.934 145.56 825.934 148.12C825.934 152.76 827.694 155.48 829.614 157.24C832.174 159.48 833.614 159.48 834.734 156.28C842.574 133.88 858.414 102.2 869.454 81.56C871.534 77.24 873.294 72.76 873.294 68.44C873.294 64.6 871.854 60.76 868.654 57.4C865.614 54.52 863.534 54.68 861.454 58.04C843.694 86.2 826.574 101.88 809.774 127.32C815.534 105.88 818.734 96.12 823.694 81.72C825.134 77.08 825.934 73.08 825.934 70.2C825.934 65.08 823.694 60.92 819.374 57.24C816.334 54.84 813.774 55.8 811.854 58.36C795.054 80.92 769.934 122.84 763.374 138.84C761.934 142.36 761.134 145.88 761.134 148.92C761.134 152.44 762.254 155.16 764.014 156.92C766.094 159 768.494 158.52 769.454 156.28C778.094 136.44 792.334 113.4 804.814 94.2C799.374 111.8 794.734 129.88 793.614 137.08C793.294 139.16 793.134 140.92 793.134 142.68ZM880.73 84.44C880.73 89.4 885.05 94.2 890.17 94.2C894.17 94.2 896.57 90.52 896.57 86.2C896.57 81.56 892.25 75.8 887.77 75.8C884.09 75.8 880.73 79.96 880.73 84.44ZM892.57 140.6C894.65 136.44 894.81 132.44 893.37 129.72C891.93 126.84 889.85 126.52 888.57 129.4C883.61 140.28 875.29 151 868.89 151C867.13 151 866.49 149.56 866.49 147C866.49 144.44 867.29 141.08 868.73 137.4C871.45 131 878.81 119 881.85 112.12C886.01 104.12 884.73 97.24 881.69 94.04C879.61 91.64 877.69 91.96 875.29 95.16C869.37 103.48 859.13 122.04 855.13 133.24C853.85 137.4 853.21 140.76 853.21 143.8C853.21 151.8 857.53 157.4 867.29 157.4C876.73 157.4 887.77 150.68 892.57 140.6ZM964.118 81.88C968.278 74.36 970.358 68.12 970.358 63.8C970.358 61.56 969.718 59.48 968.918 57.56C967.318 53.72 965.078 53.4 962.198 57.4C956.918 64.92 946.518 83 938.518 98.04C937.238 93.88 933.718 91.64 928.278 91.64C919.958 91.64 906.678 99.16 894.198 117.24C888.598 125.4 885.717 134.2 885.717 140.92C885.717 150.36 890.838 157.24 900.118 157.24C907.158 157.24 913.398 153.08 918.358 147.96C919.638 155 924.918 157.72 932.758 157.72C942.038 157.72 951.958 149.4 956.278 140.76C958.358 136.28 957.718 131.8 956.918 130.36C955.478 127.48 953.398 127.32 951.798 130.36C946.358 140.92 938.518 151.48 932.918 151.48C931.478 151.48 930.838 150.36 930.838 147.96C930.838 145.4 931.798 141.88 933.718 137.72C941.238 121.88 954.838 99.48 964.118 81.88ZM922.358 127.32C915.158 141.24 907.478 150.2 902.358 150.2C900.598 150.2 899.958 148.12 899.958 145.24C899.958 139.96 902.518 131.96 907.318 124.44C915.798 111 926.358 101.24 930.838 101.4C933.878 101.56 930.998 110.84 922.358 127.32ZM1028.34 81.88C1032.5 74.36 1034.58 68.12 1034.58 63.8C1034.58 61.56 1033.94 59.48 1033.14 57.56C1031.54 53.72 1029.3 53.4 1026.42 57.4C1021.14 64.92 1010.74 83 1002.74 98.04C1001.46 93.88 997.936 91.64 992.496 91.64C984.176 91.64 970.896 99.16 958.416 117.24C952.816 125.4 949.936 134.2 949.936 140.92C949.936 150.36 955.056 157.24 964.336 157.24C971.376 157.24 977.616 153.08 982.576 147.96C983.856 155 989.136 157.72 996.976 157.72C1006.26 157.72 1016.18 149.4 1020.5 140.76C1022.58 136.28 1021.94 131.8 1021.14 130.36C1019.7 127.48 1017.62 127.32 1016.02 130.36C1010.58 140.92 1002.74 151.48 997.136 151.48C995.696 151.48 995.056 150.36 995.056 147.96C995.056 145.4 996.016 141.88 997.936 137.72C1005.46 121.88 1019.06 99.48 1028.34 81.88ZM986.576 127.32C979.376 141.24 971.696 150.2 966.576 150.2C964.816 150.2 964.176 148.12 964.176 145.24C964.176 139.96 966.736 131.96 971.536 124.44C980.016 111 990.576 101.24 995.056 101.4C998.096 101.56 995.216 110.84 986.576 127.32ZM1071.44 69.24C1071.44 65.08 1069.68 60.6 1066.16 57.56C1063.12 54.68 1060.24 55.64 1057.2 58.68C1041.52 75.16 1023.44 104.76 1017.2 131.32C1016.39 134.52 1016.07 137.72 1016.07 140.44C1016.07 151.48 1022.15 157.08 1031.92 157.08C1045.36 157.08 1057.2 143.96 1059.6 139.16C1061.68 134.84 1061.84 131.16 1061.2 128.76C1060.08 124.6 1056.56 124.6 1054.48 128.6C1048.4 140.12 1039.12 150.84 1031.76 150.84C1029.68 150.84 1028.72 148.12 1028.72 144.28C1028.72 138.68 1030.8 131.48 1034 123.32C1048.08 113.88 1065.52 95 1070.48 75.96C1071.28 73.24 1071.44 71.48 1071.44 69.24ZM1062.48 73.24C1063.44 73.88 1061.36 80.92 1055.92 90.04C1052.24 96.28 1046.8 103.64 1039.92 110.36C1041.04 107.64 1048.08 95.64 1052.24 88.6C1057.68 79.16 1061.84 72.92 1062.48 73.24ZM1093.59 100.44C1095.35 101.88 1091.99 109.4 1087.35 115.64C1084.15 119.96 1079.03 124.76 1075.19 124.76C1074.07 124.76 1072.95 124.44 1071.67 123.64C1079.35 108.28 1091.19 98.52 1093.59 100.44ZM1105.59 106.84C1105.59 104.76 1104.95 102.36 1103.99 100.92C1101.75 97.72 1098.55 95.16 1094.07 92.6C1092.47 91.64 1090.71 91.32 1088.47 91.32C1079.19 91.32 1066.23 99.8 1057.91 116.76C1054.55 123.16 1052.95 129.4 1052.95 135.16C1052.95 147.96 1061.11 157.72 1075.99 157.56C1088.47 157.4 1101.27 149.88 1107.99 140.12C1110.87 135.8 1110.71 131.16 1110.23 129.72C1108.95 126.52 1106.87 126.84 1105.11 129.4C1098.55 139.32 1087.83 151.16 1075.67 151.16C1070.87 151.16 1067.99 146.2 1067.99 139.16C1067.99 136.28 1068.47 132.92 1069.43 129.72C1073.11 132.12 1076.95 133.24 1080.79 133.24C1094.87 133.24 1105.59 116.44 1105.59 106.84Z" fill="#E09F7D"/>
<path d="M1244.46 19.6653C1214.67 8.82173 1181.65 24.14 1170.85 53.809C1160.45 82.368 1185.19 166.935 1186.25 170.52L1187.24 173.869C1187.35 174.262 1187.65 174.576 1188.03 174.715C1188.42 174.856 1188.84 174.805 1189.19 174.579L1192.09 172.647C1195.21 170.582 1268.52 121.7 1278.91 93.1413C1289.71 63.4723 1274.26 30.5092 1244.46 19.6653ZM1231.89 54.2C1242.57 58.0853 1248.1 69.8891 1244.23 80.5189C1240.37 91.1433 1228.54 96.6337 1217.86 92.7486C1207.19 88.8656 1201.66 77.054 1205.52 66.4297C1209.39 55.7998 1221.22 50.3169 1231.89 54.2Z" fill="#ED4548"/>
</svg>
