<svg width="1111" height="127" viewBox="0 0 1111 127" fill="none" xmlns="http://www.w3.org/2000/svg">
<path d="M32.04 110.68C32.04 117.4 34.76 121.72 39.08 125.08C41.48 126.84 42.92 126.84 44.68 123.64C54.12 106.52 69.64 84.9199 83.72 66.8399C75.88 82.8399 68.04 99.6399 66.12 107.16V107C65.16 110.52 64.84 113.56 64.84 116.12C64.84 120.76 66.6 123.48 68.52 125.24C71.08 127.48 72.52 127.48 73.64 124.28C81.48 101.88 97.32 70.1999 108.36 49.5599C110.44 45.2399 112.2 40.7599 112.2 36.4399C112.2 32.5999 110.76 28.7599 107.56 25.3999C104.52 22.5199 102.44 22.6799 100.36 26.0399C82.6 54.1999 65.48 69.8799 48.68 95.3199C54.44 73.8799 57.64 64.1199 62.6 49.7199C64.04 45.0799 64.84 41.0799 64.84 38.1999C64.84 33.0799 62.6 28.9199 58.28 25.2399C55.24 22.8399 52.68 23.7999 50.76 26.3599C33.96 48.9199 8.84004 90.8399 2.28004 106.84C0.840039 110.36 0.0400391 113.88 0.0400391 116.92C0.0400391 120.44 1.16004 123.16 2.92004 124.92C5.00004 127 7.40004 126.52 8.36004 124.28C17 104.44 31.24 81.3999 43.72 62.1999C38.28 79.7999 33.64 97.8799 32.52 105.08C32.2 107.16 32.04 108.92 32.04 110.68Z" fill="#E09F7D"/>
<path d="M134.996 68.4399C136.756 69.8799 133.396 77.3999 128.756 83.6399C125.556 87.9599 120.436 92.7599 116.596 92.7599C115.476 92.7599 114.356 92.4399 113.076 91.6399C120.756 76.2799 132.596 66.5199 134.996 68.4399ZM146.996 74.8399C146.996 72.7599 146.356 70.3599 145.396 68.9199C143.156 65.7199 139.956 63.1599 135.476 60.5999C133.876 59.6399 132.116 59.3199 129.876 59.3199C120.596 59.3199 107.636 67.7999 99.3163 84.7599C95.9563 91.1599 94.3563 97.3999 94.3563 103.16C94.3563 115.96 102.516 125.72 117.396 125.56C129.876 125.4 142.676 117.88 149.396 108.12C152.276 103.8 152.116 99.1599 151.636 97.7199C150.356 94.5199 148.276 94.8399 146.516 97.3999C139.956 107.32 129.236 119.16 117.076 119.16C112.276 119.16 109.396 114.2 109.396 107.16C109.396 104.28 109.876 100.92 110.836 97.7199C114.516 100.12 118.356 101.24 122.196 101.24C136.276 101.24 146.996 84.4399 146.996 74.8399Z" fill="#E09F7D"/>
<path d="M186.246 68.4399C188.006 69.8799 184.646 77.3999 180.006 83.6399C176.806 87.9599 171.686 92.7599 167.846 92.7599C166.726 92.7599 165.606 92.4399 164.326 91.6399C172.006 76.2799 183.846 66.5199 186.246 68.4399ZM198.246 74.8399C198.246 72.7599 197.606 70.3599 196.646 68.9199C194.406 65.7199 191.206 63.1599 186.726 60.5999C185.126 59.6399 183.366 59.3199 181.126 59.3199C171.846 59.3199 158.886 67.7999 150.566 84.7599C147.206 91.1599 145.606 97.3999 145.606 103.16C145.606 115.96 153.766 125.72 168.646 125.56C181.126 125.4 193.926 117.88 200.646 108.12C203.526 103.8 203.366 99.1599 202.886 97.7199C201.606 94.5199 199.526 94.8399 197.766 97.3999C191.206 107.32 180.486 119.16 168.326 119.16C163.526 119.16 160.646 114.2 160.646 107.16C160.646 104.28 161.126 100.92 162.086 97.7199C165.766 100.12 169.606 101.24 173.446 101.24C187.526 101.24 198.246 84.4399 198.246 74.8399Z" fill="#E09F7D"/>
<path d="M196.216 107.48C196.216 118.52 203.576 125.4 212.056 125.4C225.496 125.4 236.216 111.64 238.456 106.84C240.216 103.16 240.856 100.76 240.056 97.3999C238.936 93.0799 235.256 93.3999 233.496 97.2399C227.896 109.24 219.576 119.32 213.336 119.32C210.616 119.32 209.016 115.96 209.016 111.16C209.016 107.64 209.976 103.48 211.896 99.1599C217.496 86.9999 226.616 71.1599 232.696 60.7599C236.216 60.2799 240.376 59.9599 243.256 60.2799C247.096 60.7599 248.216 58.8399 246.616 55.9599C245.496 54.0399 242.776 51.4799 237.816 50.8399C239.736 46.3599 240.376 42.6799 240.376 39.7999C240.376 37.8799 239.736 35.1599 238.616 33.2399C236.856 30.1999 234.936 30.0399 232.536 33.5599C228.856 38.8399 225.496 44.1199 220.536 52.7599C217.016 53.0799 212.696 53.2399 209.016 53.0799C205.336 52.9199 203.736 54.5199 205.976 57.8799C207.256 59.7999 210.136 61.5599 215.096 62.1999C208.696 73.7199 202.616 86.3599 199.416 94.1999C197.176 99.4799 196.216 103.96 196.216 107.48Z" fill="#E09F7D"/>
<path d="M294.071 110.68C294.071 117.4 296.791 121.72 301.111 125.08C303.511 126.84 304.951 126.84 306.711 123.64C316.151 106.52 331.671 84.9199 345.751 66.8399C337.911 82.8399 330.071 99.6399 328.151 107.16V107C327.191 110.52 326.871 113.56 326.871 116.12C326.871 120.76 328.631 123.48 330.551 125.24C333.111 127.48 334.551 127.48 335.671 124.28C343.511 101.88 359.351 70.1999 370.391 49.5599C372.471 45.2399 374.231 40.7599 374.231 36.4399C374.231 32.5999 372.791 28.7599 369.591 25.3999C366.551 22.5199 364.471 22.6799 362.391 26.0399C344.631 54.1999 327.511 69.8799 310.711 95.3199C316.471 73.8799 319.671 64.1199 324.631 49.7199C326.071 45.0799 326.871 41.0799 326.871 38.1999C326.871 33.0799 324.631 28.9199 320.311 25.2399C317.271 22.8399 314.711 23.7999 312.791 26.3599C295.991 48.9199 270.871 90.8399 264.311 106.84C262.871 110.36 262.071 113.88 262.071 116.92C262.071 120.44 263.191 123.16 264.951 124.92C267.031 127 269.431 126.52 270.391 124.28C279.031 104.44 293.271 81.3999 305.751 62.1999C300.311 79.7999 295.671 97.8799 294.551 105.08C294.231 107.16 294.071 108.92 294.071 110.68Z" fill="#E09F7D"/>
<path d="M397.028 68.4399C398.788 69.8799 395.428 77.3999 390.788 83.6399C387.588 87.9599 382.468 92.7599 378.628 92.7599C377.508 92.7599 376.388 92.4399 375.108 91.6399C382.788 76.2799 394.628 66.5199 397.028 68.4399ZM409.028 74.8399C409.028 72.7599 408.388 70.3599 407.428 68.9199C405.188 65.7199 401.988 63.1599 397.508 60.5999C395.908 59.6399 394.148 59.3199 391.908 59.3199C382.628 59.3199 369.668 67.7999 361.348 84.7599C357.988 91.1599 356.388 97.3999 356.388 103.16C356.388 115.96 364.548 125.72 379.428 125.56C391.908 125.4 404.708 117.88 411.428 108.12C414.308 103.8 414.148 99.1599 413.668 97.7199C412.388 94.5199 410.308 94.8399 408.548 97.3999C401.988 107.32 391.268 119.16 379.108 119.16C374.308 119.16 371.428 114.2 371.428 107.16C371.428 104.28 371.908 100.92 372.868 97.7199C376.548 100.12 380.388 101.24 384.228 101.24C398.308 101.24 409.028 84.4399 409.028 74.8399Z" fill="#E09F7D"/>
<path d="M441.834 105.24C440.554 109.08 439.914 112.92 439.914 115.16C439.914 119.16 441.194 122.04 442.794 123.64C445.354 126.52 446.954 126.04 448.234 123C459.274 98.3599 477.034 67.1599 486.794 49.8799C490.954 42.3599 492.874 35.6399 492.874 31.3199C492.874 28.7599 492.234 26.5199 491.434 24.9199C489.674 21.5599 487.274 21.0799 484.714 24.7599C472.074 42.8399 450.154 83.4799 441.834 105.24Z" fill="#E09F7D"/>
<path d="M497.334 60.7599C495.734 57.8799 493.334 57.7199 491.254 60.7599C481.334 75.6399 469.014 98.0399 465.974 107C465.014 110.2 464.534 112.92 464.534 115.32C464.534 119.16 465.814 121.88 468.054 124.12C470.614 126.68 472.694 125.72 473.814 123.16C480.374 108.76 487.574 93.0799 496.374 83.7999C505.174 73.8799 513.014 69.3999 514.454 69.3999C515.574 69.3999 513.014 73.5599 509.654 78.8399C503.414 88.7599 496.054 103.48 496.054 112.12C496.054 120.44 500.694 125.88 511.414 125.88C521.014 125.88 532.694 117.4 537.174 108.6C539.414 104.28 539.254 99.3199 537.974 97.3999C536.534 95.1599 534.294 94.9999 532.694 98.0399C526.934 108.76 518.614 119.16 513.174 119.16C511.094 119.16 509.974 117.08 509.974 113.72C509.974 107.8 515.414 97.2399 520.534 89.0799C525.654 80.1199 528.534 74.9999 528.534 71.4799C528.534 65.3999 524.214 59.7999 519.574 59.7999C513.814 59.7999 506.134 65.0799 499.254 71.4799C499.414 70.5199 499.414 69.3999 499.414 68.2799C499.414 65.7199 498.774 63.1599 497.334 60.7599Z" fill="#E09F7D"/>
<path d="M573.576 114.84C573.576 118.84 574.536 121.4 576.936 123.64C579.176 125.88 581.096 125.72 582.376 122.84C591.656 101.88 603.176 80.5999 611.496 65.5599C618.376 53.5599 623.016 44.2799 622.856 38.5199C631.496 37.0799 640.776 35.6399 647.656 36.4399C651.336 36.7599 651.976 34.8399 651.176 32.9199C648.776 26.1999 642.056 24.2799 634.696 24.2799C625.416 24.2799 599.816 28.5999 585.896 28.5999C583.656 28.5999 582.376 29.5599 582.856 31.6399C584.616 37.8799 591.496 41.5599 601.896 41.5599C604.136 41.5599 606.376 41.2399 608.776 40.9199C594.696 62.6799 578.536 95.1599 574.536 108.44C573.896 110.52 573.576 112.92 573.576 114.84Z" fill="#E09F7D"/>
<path d="M684.175 108.28C686.575 103.48 685.455 99.7999 684.655 97.8799C683.375 95.1599 680.815 95.4799 679.695 97.8799C674.895 107.64 666.415 119 660.815 119C658.575 119 657.775 116.92 657.775 113.56C657.775 111 658.415 107.64 659.855 104.12C661.615 100.28 665.615 93.5599 674.415 77.8799C675.695 75.6399 676.175 73.3999 676.175 71.1599C676.175 64.9199 671.535 59.9599 666.895 59.9599C663.855 59.9599 658.255 61.8799 653.455 65.3999C655.055 63.1599 664.975 48.2799 668.175 42.9999C672.015 36.2799 673.935 30.3599 673.935 26.0399C673.935 23.7999 673.455 21.7199 672.655 19.9599C671.215 16.7599 668.815 16.1199 666.255 19.3199C653.295 35.9599 621.615 89.5599 615.215 106.36C611.215 116.92 613.455 120.76 616.015 123.8C617.935 126.2 620.335 125.72 621.615 122.84C625.455 113.24 631.215 102.2 636.655 93.2399C645.135 79.4799 660.335 69.3999 661.775 69.3999C662.895 69.3999 660.495 73.2399 657.455 78.5199C651.375 87.9599 643.535 101.88 643.535 111.96C643.535 120.28 648.335 125.56 658.895 125.56C669.135 125.56 679.535 117.56 684.175 108.28Z" fill="#E09F7D"/>
<path d="M719.528 68.4399C721.288 69.8799 717.928 77.3999 713.288 83.6399C710.088 87.9599 704.968 92.7599 701.128 92.7599C700.008 92.7599 698.888 92.4399 697.608 91.6399C705.288 76.2799 717.128 66.5199 719.528 68.4399ZM731.528 74.8399C731.528 72.7599 730.888 70.3599 729.928 68.9199C727.688 65.7199 724.488 63.1599 720.008 60.5999C718.408 59.6399 716.648 59.3199 714.408 59.3199C705.128 59.3199 692.168 67.7999 683.848 84.7599C680.488 91.1599 678.888 97.3999 678.888 103.16C678.888 115.96 687.048 125.72 701.928 125.56C714.408 125.4 727.208 117.88 733.928 108.12C736.808 103.8 736.648 99.1599 736.168 97.7199C734.888 94.5199 732.808 94.8399 731.048 97.3999C724.488 107.32 713.768 119.16 701.608 119.16C696.808 119.16 693.928 114.2 693.928 107.16C693.928 104.28 694.408 100.92 695.368 97.7199C699.048 100.12 702.888 101.24 706.728 101.24C720.808 101.24 731.528 84.4399 731.528 74.8399Z" fill="#E09F7D"/>
<path d="M793.134 110.68C793.134 117.4 795.854 121.72 800.174 125.08C802.574 126.84 804.014 126.84 805.774 123.64C815.214 106.52 830.734 84.9199 844.814 66.8399C836.974 82.8399 829.134 99.6399 827.214 107.16V107C826.254 110.52 825.934 113.56 825.934 116.12C825.934 120.76 827.694 123.48 829.614 125.24C832.174 127.48 833.614 127.48 834.734 124.28C842.574 101.88 858.414 70.1999 869.454 49.5599C871.534 45.2399 873.294 40.7599 873.294 36.4399C873.294 32.5999 871.854 28.7599 868.654 25.3999C865.614 22.5199 863.534 22.6799 861.454 26.0399C843.694 54.1999 826.574 69.8799 809.774 95.3199C815.534 73.8799 818.734 64.1199 823.694 49.7199C825.134 45.0799 825.934 41.0799 825.934 38.1999C825.934 33.0799 823.694 28.9199 819.374 25.2399C816.334 22.8399 813.774 23.7999 811.854 26.3599C795.054 48.9199 769.934 90.8399 763.374 106.84C761.934 110.36 761.134 113.88 761.134 116.92C761.134 120.44 762.254 123.16 764.014 124.92C766.094 127 768.494 126.52 769.454 124.28C778.094 104.44 792.334 81.3999 804.814 62.1999C799.374 79.7999 794.734 97.8799 793.614 105.08C793.294 107.16 793.134 108.92 793.134 110.68Z" fill="#E09F7D"/>
<path d="M892.57 108.6C894.65 104.44 894.81 100.44 893.37 97.7199C891.93 94.8399 889.85 94.5199 888.57 97.3999C883.61 108.28 875.29 119 868.89 119C867.13 119 866.49 117.56 866.49 115C866.49 112.44 867.29 109.08 868.73 105.4C871.45 98.9999 878.81 86.9999 881.85 80.1199C886.01 72.1199 884.73 65.2399 881.69 62.0399C879.61 59.6399 877.69 59.9599 875.29 63.1599C869.37 71.4799 859.13 90.0399 855.13 101.24C853.85 105.4 853.21 108.76 853.21 111.8C853.21 119.8 857.53 125.4 867.29 125.4C876.73 125.4 887.77 118.68 892.57 108.6Z" fill="#E09F7D"/>
<path d="M964.118 49.8799C968.278 42.3599 970.358 36.1199 970.358 31.7999C970.358 29.5599 969.718 27.4799 968.918 25.5599C967.318 21.7199 965.078 21.3999 962.198 25.3999C956.918 32.9199 946.518 50.9999 938.518 66.0399C937.238 61.8799 933.718 59.6399 928.278 59.6399C919.958 59.6399 906.678 67.1599 894.198 85.2399C888.598 93.3999 885.718 102.2 885.718 108.92C885.718 118.36 890.838 125.24 900.118 125.24C907.158 125.24 913.398 121.08 918.358 115.96C919.638 123 924.918 125.72 932.758 125.72C942.038 125.72 951.958 117.4 956.278 108.76C958.358 104.28 957.718 99.7999 956.918 98.3599C955.478 95.4799 953.398 95.3199 951.798 98.3599C946.358 108.92 938.518 119.48 932.918 119.48C931.478 119.48 930.838 118.36 930.838 115.96C930.838 113.4 931.798 109.88 933.718 105.72C941.238 89.8799 954.838 67.4799 964.118 49.8799ZM922.358 95.3199C915.158 109.24 907.478 118.2 902.358 118.2C900.598 118.2 899.958 116.12 899.958 113.24C899.958 107.96 902.518 99.9599 907.318 92.4399C915.798 78.9999 926.358 69.2399 930.838 69.3999C933.878 69.5599 930.998 78.8399 922.358 95.3199Z" fill="#E09F7D"/>
<path d="M1028.34 49.8799C1032.5 42.3599 1034.58 36.1199 1034.58 31.7999C1034.58 29.5599 1033.94 27.4799 1033.14 25.5599C1031.54 21.7199 1029.3 21.3999 1026.42 25.3999C1021.14 32.9199 1010.74 50.9999 1002.74 66.0399C1001.46 61.8799 997.936 59.6399 992.496 59.6399C984.176 59.6399 970.896 67.1599 958.416 85.2399C952.816 93.3999 949.936 102.2 949.936 108.92C949.936 118.36 955.056 125.24 964.336 125.24C971.376 125.24 977.616 121.08 982.576 115.96C983.856 123 989.136 125.72 996.976 125.72C1006.26 125.72 1016.18 117.4 1020.5 108.76C1022.58 104.28 1021.94 99.7999 1021.14 98.3599C1019.7 95.4799 1017.62 95.3199 1016.02 98.3599C1010.58 108.92 1002.74 119.48 997.136 119.48C995.696 119.48 995.056 118.36 995.056 115.96C995.056 113.4 996.016 109.88 997.936 105.72C1005.46 89.8799 1019.06 67.4799 1028.34 49.8799ZM986.576 95.3199C979.376 109.24 971.696 118.2 966.576 118.2C964.816 118.2 964.176 116.12 964.176 113.24C964.176 107.96 966.736 99.9599 971.536 92.4399C980.016 78.9999 990.576 69.2399 995.056 69.3999C998.096 69.5599 995.216 78.8399 986.576 95.3199Z" fill="#E09F7D"/>
<path d="M1071.44 37.2399C1071.44 33.0799 1069.68 28.5999 1066.16 25.5599C1063.12 22.6799 1060.23 23.6399 1057.19 26.6799C1041.51 43.1599 1023.44 72.7599 1017.2 99.3199C1016.4 102.52 1016.08 105.72 1016.08 108.44C1016.08 119.48 1022.16 125.08 1031.92 125.08C1045.36 125.08 1057.19 111.96 1059.59 107.16C1061.67 102.84 1061.83 99.1599 1061.19 96.7599C1060.07 92.5999 1056.55 92.5999 1054.47 96.5999C1048.39 108.12 1039.12 118.84 1031.76 118.84C1029.68 118.84 1028.72 116.12 1028.72 112.28C1028.72 106.68 1030.79 99.4799 1033.99 91.3199C1048.07 81.8799 1065.51 62.9999 1070.47 43.9599C1071.27 41.2399 1071.44 39.4799 1071.44 37.2399ZM1062.47 41.2399C1063.43 41.8799 1061.36 48.9199 1055.92 58.0399C1052.24 64.2799 1046.8 71.6399 1039.92 78.3599C1041.04 75.6399 1048.07 63.6399 1052.23 56.5999C1057.67 47.1599 1061.83 40.9199 1062.47 41.2399Z" fill="#E09F7D"/>
<path d="M1093.59 68.4399C1095.35 69.8799 1091.99 77.3999 1087.35 83.6399C1084.15 87.9599 1079.03 92.7599 1075.19 92.7599C1074.07 92.7599 1072.95 92.4399 1071.67 91.6399C1079.35 76.2799 1091.19 66.5199 1093.59 68.4399ZM1105.59 74.8399C1105.59 72.7599 1104.95 70.3599 1103.99 68.9199C1101.75 65.7199 1098.55 63.1599 1094.07 60.5999C1092.47 59.6399 1090.71 59.3199 1088.47 59.3199C1079.19 59.3199 1066.23 67.7999 1057.91 84.7599C1054.55 91.1599 1052.95 97.3999 1052.95 103.16C1052.95 115.96 1061.11 125.72 1075.99 125.56C1088.47 125.4 1101.27 117.88 1107.99 108.12C1110.87 103.8 1110.71 99.1599 1110.23 97.7199C1108.95 94.5199 1106.87 94.8399 1105.11 97.3999C1098.55 107.32 1087.83 119.16 1075.67 119.16C1070.87 119.16 1067.99 114.2 1067.99 107.16C1067.99 104.28 1068.47 100.92 1069.43 97.7199C1073.11 100.12 1076.95 101.24 1080.79 101.24C1094.87 101.24 1105.59 84.4399 1105.59 74.8399Z" fill="#E09F7D"/>
<path d="M912.148 8.61844C903.648 3.86618 892.882 6.88747 888.149 15.3524C883.594 23.5007 886.937 50.3576 887.082 51.4967L887.217 52.5607C887.232 52.6856 887.307 52.7952 887.416 52.8561C887.526 52.9179 887.658 52.9237 887.773 52.8718L888.75 52.4291C889.796 51.9561 914.426 40.7383 918.982 32.5901C923.714 24.1251 920.648 13.3708 912.148 8.61844ZM906.639 18.4717C909.685 20.1744 910.783 24.0254 909.087 27.0582C907.392 30.0895 903.536 31.1728 900.49 29.4701C897.446 27.7684 896.348 23.9148 898.042 20.8835C899.738 17.8507 903.595 16.7699 906.639 18.4717Z" fill="#ED4548"/>
</svg>
