<svg width="1406" height="246" viewBox="0 0 1406 246" fill="none" xmlns="http://www.w3.org/2000/svg">
<path d="M48.56 164.52C48.56 174.6 52.64 181.08 59.12 186.12C62.72 188.76 64.88 188.76 67.52 183.96C81.68 158.28 104.96 125.88 126.08 98.76C114.32 122.76 102.56 147.96 99.68 159.24V159C98.24 164.28 97.76 168.84 97.76 172.68C97.76 179.64 100.4 183.72 103.28 186.36C107.12 189.72 109.28 189.72 110.96 184.92C122.72 151.32 146.48 103.8 163.04 72.84C166.16 66.36 168.8 59.64 168.8 53.16C168.8 47.4 166.64 41.64 161.84 36.6C157.28 32.28 154.16 32.52 151.04 37.56C124.4 79.8 98.72 103.32 73.52 141.48C82.16 109.32 86.96 94.68 94.4 73.08C96.56 66.12 97.76 60.12 97.76 55.8C97.76 48.12 94.4 41.88 87.92 36.36C83.36 32.76 79.52 34.2 76.64 38.04C51.44 71.88 13.76 134.76 3.92 158.76C1.76 164.04 0.56 169.32 0.56 173.88C0.56 179.16 2.24 183.24 4.88 185.88C8 189 11.6 188.28 13.04 184.92C26 155.16 47.36 120.6 66.08 91.8C57.92 118.2 50.96 145.32 49.28 156.12C48.8 159.24 48.56 161.88 48.56 164.52ZM202.994 101.16C205.634 103.32 200.594 114.6 193.634 123.96C188.834 130.44 181.154 137.64 175.394 137.64C173.714 137.64 172.034 137.16 170.114 135.96C181.634 112.92 199.394 98.28 202.994 101.16ZM220.994 110.76C220.994 107.64 220.034 104.04 218.594 101.88C215.234 97.08 210.434 93.24 203.714 89.4C201.314 87.96 198.674 87.48 195.314 87.48C181.394 87.48 161.954 100.2 149.474 125.64C144.434 135.24 142.034 144.6 142.034 153.24C142.034 172.44 154.274 187.08 176.594 186.84C195.314 186.6 214.514 175.32 224.594 160.68C228.914 154.2 228.674 147.24 227.954 145.08C226.034 140.28 222.914 140.76 220.274 144.6C210.434 159.48 194.354 177.24 176.114 177.24C168.914 177.24 164.594 169.8 164.594 159.24C164.594 154.92 165.314 149.88 166.754 145.08C172.274 148.68 178.034 150.36 183.794 150.36C204.914 150.36 220.994 125.16 220.994 110.76ZM279.869 101.16C282.509 103.32 277.469 114.6 270.509 123.96C265.709 130.44 258.029 137.64 252.269 137.64C250.589 137.64 248.909 137.16 246.989 135.96C258.509 112.92 276.269 98.28 279.869 101.16ZM297.869 110.76C297.869 107.64 296.909 104.04 295.469 101.88C292.109 97.08 287.309 93.24 280.589 89.4C278.189 87.96 275.549 87.48 272.189 87.48C258.269 87.48 238.829 100.2 226.349 125.64C221.309 135.24 218.909 144.6 218.909 153.24C218.909 172.44 231.149 187.08 253.469 186.84C272.189 186.6 291.389 175.32 301.469 160.68C305.789 154.2 305.549 147.24 304.829 145.08C302.909 140.28 299.789 140.76 297.149 144.6C287.309 159.48 271.229 177.24 252.989 177.24C245.789 177.24 241.469 169.8 241.469 159.24C241.469 154.92 242.189 149.88 243.629 145.08C249.149 148.68 254.909 150.36 260.669 150.36C281.789 150.36 297.869 125.16 297.869 110.76ZM294.824 159.72C294.824 176.28 305.864 186.6 318.584 186.6C338.744 186.6 354.824 165.96 358.184 158.76C360.824 153.24 361.784 149.64 360.584 144.6C358.904 138.12 353.384 138.6 350.744 144.36C342.344 162.36 329.864 177.48 320.504 177.48C316.424 177.48 314.024 172.44 314.024 165.24C314.024 159.96 315.464 153.72 318.344 147.24C326.744 129 340.424 105.24 349.544 89.64C354.824 88.92 361.064 88.44 365.384 88.92C371.144 89.64 372.824 86.76 370.424 82.44C368.744 79.56 364.664 75.72 357.224 74.76C360.104 68.04 361.064 62.52 361.064 58.2C361.064 55.32 360.104 51.24 358.424 48.36C355.784 43.8 352.904 43.56 349.304 48.84C343.784 56.76 338.744 64.68 331.304 77.64C326.024 78.12 319.544 78.36 314.024 78.12C308.504 77.88 306.104 80.28 309.464 85.32C311.384 88.2 315.704 90.84 323.144 91.8C313.544 109.08 304.424 128.04 299.624 139.8C296.264 147.72 294.824 154.44 294.824 159.72ZM441.607 164.52C441.607 174.6 445.687 181.08 452.167 186.12C455.767 188.76 457.927 188.76 460.567 183.96C474.727 158.28 498.007 125.88 519.127 98.76C507.367 122.76 495.607 147.96 492.727 159.24V159C491.287 164.28 490.807 168.84 490.807 172.68C490.807 179.64 493.447 183.72 496.327 186.36C500.167 189.72 502.327 189.72 504.007 184.92C515.767 151.32 539.527 103.8 556.087 72.84C559.207 66.36 561.847 59.64 561.847 53.16C561.847 47.4 559.687 41.64 554.887 36.6C550.327 32.28 547.207 32.52 544.087 37.56C517.447 79.8 491.767 103.32 466.567 141.48C475.207 109.32 480.007 94.68 487.447 73.08C489.607 66.12 490.807 60.12 490.807 55.8C490.807 48.12 487.447 41.88 480.967 36.36C476.407 32.76 472.567 34.2 469.687 38.04C444.487 71.88 406.807 134.76 396.967 158.76C394.807 164.04 393.607 169.32 393.607 173.88C393.607 179.16 395.287 183.24 397.927 185.88C401.047 189 404.647 188.28 406.087 184.92C419.047 155.16 440.407 120.6 459.127 91.8C450.967 118.2 444.007 145.32 442.327 156.12C441.847 159.24 441.607 161.88 441.607 164.52ZM596.041 101.16C598.681 103.32 593.641 114.6 586.681 123.96C581.881 130.44 574.201 137.64 568.441 137.64C566.761 137.64 565.081 137.16 563.161 135.96C574.681 112.92 592.441 98.28 596.041 101.16ZM614.041 110.76C614.041 107.64 613.081 104.04 611.641 101.88C608.281 97.08 603.481 93.24 596.761 89.4C594.361 87.96 591.721 87.48 588.361 87.48C574.441 87.48 555.001 100.2 542.521 125.64C537.481 135.24 535.081 144.6 535.081 153.24C535.081 172.44 547.321 187.08 569.641 186.84C588.361 186.6 607.561 175.32 617.641 160.68C621.961 154.2 621.721 147.24 621.001 145.08C619.081 140.28 615.961 140.76 613.321 144.6C603.481 159.48 587.401 177.24 569.161 177.24C561.961 177.24 557.641 169.8 557.641 159.24C557.641 154.92 558.361 149.88 559.801 145.08C565.321 148.68 571.081 150.36 576.841 150.36C597.961 150.36 614.041 125.16 614.041 110.76Z" fill="#E09F7D"/>
<path d="M797.165 75.36C803.951 63.66 806.291 54.768 806.291 48.216C806.291 44.706 805.355 41.898 804.185 39.324C801.845 34.176 798.335 33.474 794.123 38.856C784.763 51.258 764.639 87.06 749.663 116.778C736.793 117.948 724.859 120.99 710.117 123.096L735.155 77.466C740.771 67.17 742.877 58.044 742.877 51.492C742.877 47.514 742.175 44.472 740.771 41.898C738.197 37.452 734.687 36.75 730.943 41.664C721.115 55.704 699.821 94.548 685.313 124.734C682.739 124.734 681.335 124.266 677.825 124.032C671.507 123.564 670.103 125.202 672.443 129.648C673.379 131.286 675.251 134.094 679.931 136.668C670.103 159.834 667.763 166.854 667.763 173.64C667.763 179.022 669.635 183 671.741 185.808C674.549 189.786 678.761 188.616 680.399 184.638C687.185 169.662 693.971 154.686 700.757 140.646C711.287 140.646 726.263 137.838 740.771 135.966C737.027 143.688 733.985 151.41 732.347 155.856C730.241 162.174 729.305 166.854 729.305 170.364C729.305 175.512 731.177 179.022 733.283 182.298C735.857 186.51 739.835 185.34 741.473 181.596C749.195 164.514 756.917 148.602 764.405 133.86C768.383 133.86 771.659 134.094 775.169 134.562C779.615 135.264 781.253 133.392 780.551 130.35C779.615 126.606 777.041 122.628 772.127 120.054C777.275 110.694 782.423 101.568 797.165 75.36ZM808.93 132.456C818.524 113.502 834.436 99.93 838.648 103.206C840.988 105.078 835.606 116.544 829.054 124.968C824.374 131.286 818.056 138.072 811.972 138.072C810.334 138.072 808.696 137.604 806.824 136.668C807.292 135.498 807.76 134.562 808.93 132.456ZM939.502 146.262C937.162 141.114 933.652 142.05 931.546 146.496C924.526 162.876 911.188 177.15 902.764 177.15C899.488 177.15 897.616 173.172 897.616 167.088C897.616 164.28 898.318 160.068 899.254 157.026C903.466 145.092 914.932 129.18 924.994 117.48C927.802 114.438 928.972 111.396 928.972 108.588C928.972 102.738 924.994 96.42 921.952 92.442C919.144 88.698 915.868 90.336 912.124 92.676C904.402 97.59 898.318 100.866 891.766 102.504C894.34 94.782 896.212 87.762 896.212 82.848C896.212 77.7 894.34 74.658 889.426 74.658C881.47 74.892 865.792 91.974 865.792 104.376C865.792 108.588 868.132 112.098 872.344 114.672C859.942 143.22 835.606 176.916 812.206 176.916C805.654 176.916 801.442 169.896 801.442 159.132C801.442 154.92 802.144 150.006 803.548 145.326C808.93 149.07 814.546 150.474 820.162 150.474C830.458 150.474 839.35 144.624 846.136 136.2C852.454 128.01 855.964 118.416 855.964 111.63C855.964 108.822 855.028 106.014 853.858 103.908C850.114 99.228 845.668 95.718 839.35 91.74C837.01 90.336 834.436 89.868 831.394 89.868C818.056 89.868 798.868 102.972 786.7 126.84C782.02 136.2 779.68 145.56 779.68 153.75C779.68 172.236 791.614 186.276 813.142 186.042C841.69 185.574 866.728 157.026 885.916 117.012C891.064 116.778 896.914 115.842 903.232 113.034C893.872 124.032 884.746 136.902 880.768 149.538C879.13 154.452 878.428 158.664 878.428 162.408C878.428 176.214 886.618 186.51 901.36 186.51C915.166 186.51 932.482 176.448 938.332 161.94C941.374 155.388 940.672 148.836 939.502 146.262ZM989.235 103.206C991.809 105.312 986.895 116.31 980.109 125.436C975.429 131.754 967.941 138.774 962.325 138.774C960.687 138.774 959.049 138.306 957.177 137.136C968.409 114.672 985.725 100.398 989.235 103.206ZM1006.78 112.566C1006.78 109.524 1005.85 106.014 1004.44 103.908C1001.17 99.228 996.489 95.484 989.937 91.74C987.597 90.336 985.023 89.868 981.747 89.868C968.175 89.868 949.221 102.27 937.053 127.074C932.139 136.434 929.799 145.56 929.799 153.984C929.799 172.704 941.733 186.978 963.495 186.744C981.747 186.51 1000.47 175.512 1010.29 161.238C1014.51 154.92 1014.27 148.134 1013.57 146.028C1011.7 141.348 1008.66 141.816 1006.08 145.56C996.489 160.068 980.811 177.384 963.027 177.384C956.007 177.384 951.795 170.13 951.795 159.834C951.795 155.622 952.497 150.708 953.901 146.028C959.283 149.538 964.899 151.176 970.515 151.176C991.107 151.176 1006.78 126.606 1006.78 112.566Z" fill="#EF5D60"/>
<path d="M1165.43 37.9043C1133.05 19.2093 1091.49 30.3471 1072.8 62.7287C1054.8 93.8988 1066.04 197.485 1066.52 201.879L1066.98 205.983C1067.03 206.465 1067.31 206.89 1067.72 207.13C1068.15 207.373 1068.65 207.401 1069.1 207.207L1072.88 205.547C1076.93 203.774 1172.25 161.71 1190.25 130.54C1208.94 98.1587 1197.81 56.5999 1165.43 37.9043ZM1143.66 75.5965C1155.27 82.295 1159.25 97.1768 1152.56 108.779C1145.86 120.374 1130.98 124.368 1119.37 117.67C1107.78 110.975 1103.79 96.0833 1110.48 84.4876C1117.18 72.8859 1132.07 68.9017 1143.66 75.5965Z" fill="#EF5D60"/>
</svg>
